<?xml version="1.0" standalone="no"?>
<svg xmlns:xlink="http://www.w3.org/1999/xlink" id="wave" style="transform:rotate(180deg); transition: 0.3s" viewBox="0 0 1440 180" version="1.1" xmlns="http://www.w3.org/2000/svg"><defs><linearGradient id="sw-gradient-0" x1="0" x2="0" y1="1" y2="0"><stop stop-color="rgba(255, 249, 234, 1)" offset="0%"/><stop stop-color="rgba(255, 249, 234, 1)" offset="100%"/></linearGradient></defs><path style="transform:translate(0, 0px); opacity:1" fill="url(#sw-gradient-0)" d="M0,108L26.7,102C53.3,96,107,84,160,81C213.3,78,267,84,320,81C373.3,78,427,66,480,51C533.3,36,587,18,640,27C693.3,36,747,72,800,84C853.3,96,907,84,960,84C1013.3,84,1067,96,1120,102C1173.3,108,1227,108,1280,99C1333.3,90,1387,72,1440,78C1493.3,84,1547,114,1600,126C1653.3,138,1707,132,1760,114C1813.3,96,1867,66,1920,63C1973.3,60,2027,84,2080,99C2133.3,114,2187,120,2240,117C2293.3,114,2347,102,2400,96C2453.3,90,2507,90,2560,102C2613.3,114,2667,138,2720,135C2773.3,132,2827,102,2880,102C2933.3,102,2987,132,3040,144C3093.3,156,3147,150,3200,123C3253.3,96,3307,48,3360,48C3413.3,48,3467,96,3520,96C3573.3,96,3627,48,3680,39C3733.3,30,3787,60,3813,75L3840,90L3840,180L3813.3,180C3786.7,180,3733,180,3680,180C3626.7,180,3573,180,3520,180C3466.7,180,3413,180,3360,180C3306.7,180,3253,180,3200,180C3146.7,180,3093,180,3040,180C2986.7,180,2933,180,2880,180C2826.7,180,2773,180,2720,180C2666.7,180,2613,180,2560,180C2506.7,180,2453,180,2400,180C2346.7,180,2293,180,2240,180C2186.7,180,2133,180,2080,180C2026.7,180,1973,180,1920,180C1866.7,180,1813,180,1760,180C1706.7,180,1653,180,1600,180C1546.7,180,1493,180,1440,180C1386.7,180,1333,180,1280,180C1226.7,180,1173,180,1120,180C1066.7,180,1013,180,960,180C906.7,180,853,180,800,180C746.7,180,693,180,640,180C586.7,180,533,180,480,180C426.7,180,373,180,320,180C266.7,180,213,180,160,180C106.7,180,53,180,27,180L0,180Z"/></svg>